# File created by Blade
# Date/Time:  Tue Sep 30 19:15:05 2014
# Frame Rate: 120.000 fps
#------------------------------------------------------
:FULLY-SPECIFIED
:DEGREES
3302
root -1.503397 32.957934 -2.500495 32.281018 -50.761425 -41.920529
Spine 1.254147 26.657026 1.820419
Head -10.002316 -37.306261 28.094478
LeftShoulder 19.701368 10.483701 31.056397
LeftArm -41.067859 -18.629000 -70.066933
LeftForeArm -150.428167 6.710054 -11.635706
LeftHand -0.000049 38.231806 0.627375
LeftHandThumb1 30.357831 13.997178 22.438692
RightShoulder -21.372807 -12.683640 -12.778687
RightArm 61.001704 10.921545 99.350036
RightForeArm 86.517720 -21.638781 1.285472
RightHand 0.000020 -2.913102 21.281032
RightHandThumb1 30.482666 -12.916435 -20.793814
LeftUpLeg -10.393349 22.856499 16.199719
LeftLeg 27.076401 -0.000000 -0.000000
LeftFoot -30.271657 41.116866 -9.755137
LeftToeBase 5.597400 -0.000000 -0.000000
RightUpLeg -112.463005 -35.739299 24.220517
RightLeg 111.230499 -0.000000 -0.000000
RightFoot 31.689779 -20.070031 -0.636143
RightToeBase 17.005899 -0.000000 -0.000000
3303
root -1.508497 32.937834 -2.493295 32.145267 -50.803172 -41.878601
Spine 1.337619 26.570414 1.927680
Head -9.883180 -37.235791 27.865651
LeftShoulder 19.661447 10.490639 31.049043
LeftArm -40.940131 -18.663743 -70.145706
LeftForeArm -150.387311 6.795188 -11.759568
LeftHand -0.000022 38.263453 0.352060
LeftHandThumb1 30.357831 13.997178 22.438692
RightShoulder -21.315158 -12.708953 -12.762750
RightArm 60.902801 10.879716 99.273547
RightForeArm 86.528860 -21.560519 1.276939
RightHand -0.000057 -2.914986 21.225954
RightHandThumb1 30.482666 -12.916435 -20.793814
LeftUpLeg -10.391161 22.909641 16.173120
LeftLeg 27.317400 0.000000 0.000000
LeftFoot -30.473607 41.143041 -9.868206
LeftToeBase 5.559700 0.000000 0.000000
RightUpLeg -112.654459 -35.553615 24.399979
RightLeg 111.053703 -0.000000 -0.000000
RightFoot 31.545793 -20.167980 -0.796368
RightToeBase 17.047800 0.000000 0.000000
3304
root -1.512697 32.918635 -2.488295 31.940267 -50.796870 -41.771205
Spine 1.455554 26.460784 2.013171
Head -9.859766 -37.176304 27.761302
LeftShoulder 19.662423 10.522257 31.080261
LeftArm -40.497180 -18.842377 -70.237578
LeftForeArm -150.361609 7.312861 -12.610391
LeftHand -0.000024 38.321279 0.289327
LeftHandThumb1 30.357831 13.997178 22.438692
RightShoulder -21.264918 -12.720736 -12.717920
RightArm 60.713593 10.823231 99.207844
RightForeArm 86.508123 -21.380532 1.274368
RightHand 0.000013 -2.820671 21.207565
RightHandThumb1 30.482666 -12.916435 -20.793814
LeftUpLeg -10.382193 22.918474 16.141031
LeftLeg 27.540300 -0.000000 0.000000
LeftFoot -30.548282 41.144981 -9.743489
LeftToeBase 5.705200 0.000000 0.000000
RightUpLeg -112.732385 -35.442096 24.438224
RightLeg 110.854897 -0.000000 0.000000
RightFoot 31.355357 -20.252264 -1.021978
RightToeBase 17.160101 0.000000 0.000000
3305
root -1.517197 32.903033 -2.486295 31.755440 -50.759476 -41.684846
Spine 1.572887 26.376440 2.125061
Head -9.859265 -37.165591 27.712547
LeftShoulder 19.595048 10.505065 31.072376
LeftArm -40.277680 -18.950010 -70.277195
LeftForeArm -150.294688 7.409280 -12.736848
LeftHand -0.000014 38.332253 0.489324
LeftHandThumb1 30.357831 13.997178 22.438692
RightShoulder -21.215832 -12.751211 -12.672617
RightArm 60.542297 10.771089 99.095926
RightForeArm 86.553894 -21.388864 1.258096
RightHand -0.000038 -2.858319 21.186056
RightHandThumb1 30.482666 -12.916435 -20.793814
LeftUpLeg -10.361329 22.910181 16.154229
LeftLeg 27.726801 -0.000000 -0.000000
LeftFoot -30.628159 41.042807 -9.720849
LeftToeBase 5.666700 -0.000000 0.000000
RightUpLeg -112.667854 -35.341517 24.328530
RightLeg 110.629204 -0.000000 -0.000000
RightFoot 31.248260 -20.320209 -1.258399
RightToeBase 17.024000 -0.000000 -0.000000
3306
root -1.517097 32.893233 -2.490895 31.663830 -50.672753 -41.614029
Spine 1.569678 26.293704 2.206072
Head -9.827380 -37.159913 27.678499
LeftShoulder 19.446554 10.389214 31.029265
LeftArm -40.284718 -18.870905 -70.223074
LeftForeArm -150.232854 7.155491 -12.286468
LeftHand -0.000056 38.297799 0.433886
LeftHandThumb1 30.357831 13.997178 22.438692
RightShoulder -21.205845 -12.790267 -12.606169
RightArm 60.368527 10.659048 98.983013
RightForeArm 86.587107 -21.443370 1.248970
RightHand -0.000001 -2.940017 21.091550
RightHandThumb1 30.482666 -12.916435 -20.793814
LeftUpLeg -10.441526 22.905454 16.160344
LeftLeg 27.870800 -0.000000 -0.000000
LeftFoot -30.675540 40.970285 -9.717763
LeftToeBase 5.572800 0.000000 0.000000
RightUpLeg -112.583356 -35.238344 24.178371
RightLeg 110.370003 -0.000000 -0.000000
RightFoot 31.093856 -20.474776 -1.369836
RightToeBase 17.024300 -0.000000 -0.000000
